<?xml version="1.0" encoding="UTF-8"?>
<svg id="Layer_2" data-name="Layer 2" xmlns="http://www.w3.org/2000/svg" viewBox="0 0 99.75 20.45">
  <defs>
    <style>
      .cls-1 {
        fill: #ed1c24;
      }

      .cls-2 {
        fill: #4b5563;
      }
    </style>
  </defs>
  <g id="Layer_2-2" data-name="Layer 2">
    <g>
      <path class="cls-2" d="M8.27,20.27L2.94,13.73v6.53H0V5.61H2.94v6.57l5.33-6.57h3.55l-6.05,7.27,6.22,7.39h-3.72Z"/>
      <path class="cls-2" d="M13.87,11.28c.47-.91,1.11-1.61,1.91-2.1,.8-.49,1.7-.74,2.7-.74,.87,0,1.63,.18,2.28,.53,.65,.35,1.17,.79,1.56,1.32v-1.66h2.96v11.63h-2.96v-1.7c-.38,.55-.9,1-1.56,1.35-.67,.36-1.43,.54-2.3,.54-.98,0-1.87-.25-2.68-.76-.81-.5-1.44-1.21-1.91-2.13-.47-.92-.7-1.97-.7-3.16s.23-2.22,.7-3.13Zm8.03,1.33c-.28-.51-.66-.9-1.13-1.18s-.99-.41-1.53-.41-1.05,.13-1.51,.4-.84,.65-1.12,1.17c-.29,.51-.43,1.12-.43,1.82s.14,1.31,.43,1.84c.29,.52,.67,.93,1.13,1.21,.47,.28,.97,.42,1.5,.42s1.06-.14,1.53-.41c.48-.27,.85-.66,1.13-1.18,.28-.51,.42-1.12,.42-1.84s-.14-1.33-.42-1.84Z"/>
      <path class="cls-2" d="M32.58,8.99c.61-.35,1.31-.52,2.09-.52v3.09h-.78c-.92,0-1.62,.22-2.09,.65-.47,.43-.7,1.19-.7,2.27v5.8h-2.94V8.63h2.94v1.81c.38-.62,.87-1.1,1.48-1.45Z"/>
      <path class="cls-2" d="M36.59,11.28c.47-.91,1.11-1.61,1.91-2.1,.8-.49,1.7-.74,2.7-.74,.87,0,1.63,.18,2.28,.53,.65,.35,1.17,.79,1.56,1.32v-1.66h2.96v11.63h-2.96v-1.7c-.38,.55-.9,1-1.56,1.35-.67,.36-1.43,.54-2.3,.54-.98,0-1.87-.25-2.68-.76-.81-.5-1.44-1.21-1.91-2.13-.47-.92-.7-1.97-.7-3.16s.23-2.22,.7-3.13Zm8.03,1.33c-.28-.51-.66-.9-1.13-1.18s-.99-.41-1.53-.41-1.05,.13-1.51,.4-.84,.65-1.12,1.17c-.29,.51-.43,1.12-.43,1.82s.14,1.31,.43,1.84c.29,.52,.67,.93,1.13,1.21,.47,.28,.97,.42,1.5,.42s1.06-.14,1.53-.41c.48-.27,.85-.66,1.13-1.18,.28-.51,.42-1.12,.42-1.84s-.14-1.33-.42-1.84Z"/>
      <path class="cls-2" d="M60.69,9.78c.85,.88,1.28,2.1,1.28,3.66v6.83h-2.94v-6.43c0-.92-.23-1.63-.69-2.13-.46-.5-1.09-.75-1.89-.75s-1.45,.25-1.92,.75c-.47,.5-.7,1.21-.7,2.13v6.43h-2.94V8.63h2.94v1.45c.39-.5,.89-.9,1.5-1.19,.61-.29,1.28-.43,2.01-.43,1.39,0,2.51,.44,3.36,1.31Z"/>
      <path class="cls-2" d="M64.71,11.28c.47-.91,1.11-1.61,1.92-2.1,.81-.49,1.71-.74,2.71-.74,.76,0,1.48,.17,2.16,.49,.69,.33,1.23,.77,1.64,1.31V4.73h2.98v15.54h-2.98v-1.72c-.36,.57-.88,1.04-1.53,1.39s-1.42,.52-2.29,.52c-.98,0-1.88-.25-2.69-.76-.81-.5-1.45-1.21-1.92-2.13-.47-.92-.7-1.97-.7-3.16s.23-2.22,.7-3.13Zm8.03,1.33c-.28-.51-.66-.9-1.13-1.18s-.99-.41-1.53-.41-1.05,.13-1.51,.4-.84,.65-1.12,1.17c-.29,.51-.43,1.12-.43,1.82s.14,1.31,.43,1.84c.29,.52,.66,.93,1.13,1.21,.47,.28,.97,.42,1.5,.42s1.06-.14,1.53-.41c.48-.27,.85-.66,1.13-1.18,.28-.51,.42-1.12,.42-1.84s-.14-1.33-.42-1.84Z"/>
      <path class="cls-2" d="M78.95,11.28c.47-.91,1.11-1.61,1.91-2.1,.8-.49,1.7-.74,2.7-.74,.87,0,1.63,.18,2.28,.53,.65,.35,1.17,.79,1.56,1.32v-1.66h2.96v11.63h-2.96v-1.7c-.38,.55-.9,1-1.56,1.35-.67,.36-1.43,.54-2.3,.54-.98,0-1.87-.25-2.68-.76-.81-.5-1.44-1.21-1.91-2.13-.47-.92-.7-1.97-.7-3.16s.23-2.22,.7-3.13Zm8.03,1.33c-.28-.51-.66-.9-1.13-1.18s-.99-.41-1.53-.41-1.05,.13-1.51,.4-.84,.65-1.12,1.17c-.29,.51-.43,1.12-.43,1.82s.14,1.31,.43,1.84c.29,.52,.66,.93,1.13,1.21,.47,.28,.97,.42,1.5,.42s1.06-.14,1.53-.41c.48-.27,.85-.66,1.13-1.18,.28-.51,.42-1.12,.42-1.84s-.14-1.33-.42-1.84Z"/>
      <path class="cls-2" d="M97.66,8.99c.61-.35,1.31-.52,2.09-.52v3.09h-.78c-.92,0-1.62,.22-2.09,.65-.47,.43-.7,1.19-.7,2.27v5.8h-2.94V8.63h2.94v1.81c.38-.62,.87-1.1,1.48-1.45Z"/>
    </g>
    <path class="cls-1" d="M38.52,2.88h0s0,0,0,0c.17-1.52-1.46-2.63-2.79-1.86-1.12,.64-1.79,2.06-1.09,3.5l1.95,3.99,3.99-1.95c1.44-.7,1.78-2.23,1.29-3.43-.58-1.42-2.55-1.55-3.35-.24Z"/>
    <path class="cls-1" d="M82.1,2.55h0s0,0,0,0c1.09-1.08,2.97-.49,3.2,1.03,.19,1.28-.5,2.68-2.06,3.03l-4.33,.95-.95-4.33c-.34-1.57,.64-2.78,1.88-3.14,1.47-.43,2.8,1.03,2.27,2.47Z"/>
    <path class="cls-1" d="M63.4,3.41h0s0,0,0,0c-.29-1.51-2.17-2.08-3.22-.96-.88,.94-1.11,2.49,0,3.66l3.04,3.24,3.24-3.04c1.17-1.1,1.04-2.66,.22-3.66-.97-1.19-2.89-.73-3.27,.75Z"/>
  </g>
</svg>